# xmcd generated by iCDc
#
# Track frame offsets:
#     150
#     21527
#     41160
#     93517
#     105110
#     127887
#     146150
#     182612
#     202787
#     222002
#     240227
#     253490
#     286350
#
# Disc length: 4008 seconds
#
# Revision: 0
# Processed by: cddbd v1.4PL0 Copyright (c) Steve Scherf et al.
# Submitted via: iCDc 2.0 http://homepage.mac.com/andersw/icdc/
#
DISCID=b60fa60d
DTITLE=Stevie Ray Vaughan And Double Trouble - Stormy Monday Blues
DYEAR=1984
DGENRE=Blues
TTITLE0=Shuffle
TTITLE1=Testify
TTITLE2=Voodoo Chile
TTITLE3=Honey Bee
TTITLE4=Couldn't Stand The Weather
TTITLE5=Cold Shot
TTITLE6=Texas Flood
TTITLE7=Pride And Joy
TTITLE8=Rude Moon
TTITLE9=The Big Run
TTITLE10=Love Struck Baby
TTITLE11=Stormy Monday Blues
TTITLE12=Closing Time
EXTD=
EXTT0=
EXTT1=
EXTT2=
EXTT3=
EXTT4=
EXTT5=
EXTT6=
EXTT7=
EXTT8=
EXTT9=
EXTT10=
EXTT11=
EXTT12=
PLAYORDER=
